<?xml version="1.0" encoding="utf-8"?>
<!-- Generator: Adobe Illustrator 19.0.0, SVG Export Plug-In . SVG Version: 6.00 Build 0)  -->
<svg version="1.1" id="Layer_1" xmlns="http://www.w3.org/2000/svg" xmlns:xlink="http://www.w3.org/1999/xlink" x="0px" y="0px"
	 viewBox="0 0 588.1 150" style="enable-background:new 0 0 588.1 150;" xml:space="preserve">
<metadata><?xpacket begin="﻿" id="W5M0MpCehiHzreSzNTczkc9d"?>
<x:xmpmeta xmlns:x="adobe:ns:meta/" x:xmptk="Adobe XMP Core 5.6-c067 79.157747, 2015/03/30-23:40:42        ">
   <rdf:RDF xmlns:rdf="http://www.w3.org/1999/02/22-rdf-syntax-ns#">
      <rdf:Description rdf:about=""/>
   </rdf:RDF>
</x:xmpmeta>
                                                                                                    
                                                                                                    
                                                                                                    
                                                                                                    
                                                                                                    
                                                                                                    
                                                                                                    
                                                                                                    
                                                                                                    
                                                                                                    
                                                                                                    
                                                                                                    
                                                                                                    
                                                                                                    
                                                                                                    
                                                                                                    
                                                                                                    
                                                                                                    
                                                                                                    
                                                                                                    
                           
<?xpacket end="w"?></metadata>
<style type="text/css">
	.st0{fill-rule:evenodd;clip-rule:evenodd;fill:#E3E3E2;}
	.st1{fill:#3492D0;}
	.st2{fill:#96C222;}
	.st3{fill:#EC681D;}
	.st4{fill:#E3E3E2;}
</style>
<path id="XMLID_167_" class="st0" d="M120.4,37.3c0,0-0.1,0-0.1,0c-6.8-1.2-13.9-0.1-20.5-0.8c-14.1-1.6-21.5-6.4-26.9-11.9
	c-2.4-2.5-2.7-5.4-5.4-8.9c-0.9-1.3-23,21-23,21c5.5,0,9.7-0.9,14.8-0.3c12.1,1.6,21.5,7.7,26.2,13.1c10.7,12.4,7.1,28.7-11.1,36.4
	c-4.2,1.7-9.3,2.4-14.4,3.2c-2.6,0.3,42.3,28.9,41.7,25.5c-0.8-6-3-10.9-2.5-15.2c1.1-9.4,5.5-16.3,17-21.1
	c4.8-2.1,13.1-2.2,19.3-4.4C146.4,70.1,131.3,39.1,120.4,37.3z"/>
<path id="XMLID_166_" class="st1" d="M60.2,89c17.8-1.9,35.7,7.5,40.6,22c5.4,15.8-6.3,31.9-26.8,34.7c-21.1,2.9-40.7-9.4-43.1-26.3
	C28.7,104.1,42,90.9,60.2,89z"/>
<path id="XMLID_165_" class="st2" d="M39.8,5.7C53.3,5,66.3,10.5,69,18.5c3,8.6-6.6,16.8-21.7,17.9C31.9,37.6,18.1,30.9,16.9,22
	C15.7,13.6,26,6.5,39.8,5.7z"/>
<path id="XMLID_164_" class="st3" d="M110.1,36.8c14.3-1.1,30,5.6,35.6,15.6c6,10.7-1.6,21.3-17.6,22.9c-16.4,1.7-33.5-6.7-37.7-18
	C86.6,46.9,95.6,38,110.1,36.8z"/>
<g id="XMLID_157_">
	<polygon id="XMLID_163_" class="st4" points="170.6,31.7 191.7,31.7 191.7,91.3 206.5,91.3 206.5,31.7 227.5,31.7 227.5,17 
		170.6,17 	"/>
	<polygon id="XMLID_162_" class="st4" points="241.5,91.3 292.3,91.3 292.3,76.5 256.3,76.5 256.3,61.5 286.5,61.5 282.8,46.7 
		256.3,46.7 256.3,31.7 292.3,31.7 292.3,17 241.5,17 	"/>
	<path id="XMLID_161_" class="st4" d="M353.5,64.2c1.9-1.7,3.5-3.6,4.8-5.6c1.3-2.1,2.4-4.4,3.1-6.8c0.8-2.5,1.1-5.1,1.1-7.8
		c0-3.7-0.7-7.2-2.2-10.5c-1.4-3.2-3.4-6.1-5.8-8.5c-2.4-2.4-5.3-4.4-8.5-5.8c-3.3-1.4-6.8-2.2-10.5-2.2h-28.1v74.3h14.8V31.7h13.4
		c3.4,0,6.2,1.2,8.7,3.6c1.1,1.1,2,2.4,2.6,3.9c0.6,1.5,0.9,3.1,0.9,4.7c0,1.6-0.3,3.2-0.9,4.7c-0.6,1.5-1.5,2.9-2.6,4
		c-2.5,2.5-5.3,3.6-8.7,3.6h-2.9l-6,14.8h6.3l13,20.2h17.6l-15.2-23.5C350.3,66.8,352,65.6,353.5,64.2z"/>
	<path id="XMLID_160_" class="st4" d="M423.4,64.2c1.9-1.7,3.5-3.6,4.8-5.6c1.3-2.1,2.4-4.4,3.1-6.8c0.8-2.5,1.1-5.1,1.1-7.8
		c0-3.7-0.7-7.2-2.2-10.5c-1.4-3.2-3.4-6.1-5.8-8.5c-2.4-2.4-5.3-4.4-8.5-5.8c-3.3-1.4-6.8-2.2-10.5-2.2h-28.1v74.3h14.8V31.7h13.4
		c3.4,0,6.2,1.2,8.7,3.6c1.1,1.1,2,2.4,2.6,3.9c0.6,1.5,0.9,3.1,0.9,4.7c0,1.6-0.3,3.2-0.9,4.7c-0.6,1.5-1.5,2.9-2.6,4
		c-2.5,2.5-5.3,3.6-8.7,3.6h-3.4l-6,14.8h6.8l13,20.2h17.6l-15.2-23.5C420.1,66.8,421.8,65.6,423.4,64.2z"/>
	<polygon id="XMLID_159_" class="st4" points="473.5,17 439.9,91.3 456.2,91.3 461.7,79 492.6,79 485.9,64.2 468.4,64.2 481,36.1 
		494.5,65.9 505.9,91.3 522.2,91.3 488.6,17 	"/>
	<path id="XMLID_158_" class="st4" d="M570.4,53c-1.5-1-3.1-2-4.7-2.8c-1.5-0.8-3-1.4-4.3-2c-1.3-0.6-2.5-1-3.5-1.3
		c-1.1-0.3-1.6-0.5-1.8-0.6l-1.4-0.4c-1.2-0.3-2.6-0.7-4-1.1c-1.4-0.4-2.7-0.9-3.9-1.6c-1.4-0.7-2.6-1.6-3.4-2.5
		c-1-1.1-1.5-2.3-1.5-3.9c0-2.6,1.3-4.6,3.9-6.2c0.9-0.5,2-0.9,3.3-1.2c1.3-0.3,2.6-0.5,3.8-0.5c2.9,0,5.8,0.7,8.5,1.9
		c1.8,0.9,3.6,2.2,5.3,4l0.9,0.9L578,25.2l-1-0.9c-0.6-0.5-1.2-1-1.9-1.6c-0.8-0.6-1.7-1.3-2.8-1.9c-2-1.2-4.8-2.4-8.2-3.6
		c-3.5-1.2-7.8-1.8-12.8-1.8c-2.8,0-5.6,0.4-8.5,1.2c-2.9,0.8-5.6,2.1-8,4c-2.4,1.8-4.4,4.3-5.8,7.2c-1.5,2.9-2.2,6.6-2.2,10.8
		c0,6.5,3.3,12,9.9,16.4c2.7,1.8,5.5,3.3,8.3,4.3c2.7,1,4.7,1.7,6.2,2.2c0.2,0.1,0.4,0.2,0.6,0.2c0.3,0.2,0.6,0.3,1,0.3
		c0.1,0,0.3,0.1,0.6,0.2l0.1,0c1.1,0.3,2.3,0.7,3.7,1.1c1.3,0.4,2.5,0.9,3.7,1.5l0.1,0c1.3,0.6,2.4,1.4,3.3,2.4
		c1,1.1,1.5,2.4,1.5,3.8c0,2.4-1,4.3-3,5.8c-1,0.7-2.2,1.2-3.5,1.6c-1.3,0.4-2.9,0.6-4.5,0.6c-0.9,0-2.1-0.1-3.5-0.3
		c-1.4-0.2-2.9-0.6-4.5-1.3c-2.7-1-5.1-2.5-7.2-4.5l-0.9-0.8l-10.3,10.3l1.1,0.9c3,2.4,6.8,4.5,11.3,6.4c4.6,1.9,9.8,2.8,15.7,2.8
		c3.7,0,7.1-0.5,10.1-1.6c3-1.1,5.6-2.6,7.8-4.6c2.1-2,3.8-4.5,5-7.3c1.1-2.8,1.7-6.1,1.7-9.5C580.9,63.2,577.3,57.6,570.4,53z"/>
</g>
</svg>
